<svg xmlns="http://www.w3.org/2000/svg" xmlns:svg="http://www.w3.org/2000/svg" id="Layer_1" x="0" y="0" version="1.1" viewBox="-549 251 100 100" xml:space="preserve" style="enable-background:new -549 251 100 100"><metadata id="metadata25"/><path style="fill:#a0a1a2" id="path5" d="m -466.3,342.8 -65.5,0 c -5,0 -9.1,-4.1 -9.1,-9.1 l 0,-65.5 c 0,-5 4.1,-9.1 9.1,-9.1 l 65.5,0 c 5,0 9.1,4.1 9.1,9.1 l 0,65.5 c 0,5 -4.1,9.1 -9.1,9.1 z m -65.5,-77.7 c -1.7,0 -3,1.4 -3,3 l 0,65.5 c 0,1.7 1.4,3 3,3 l 65.5,0 c 1.7,0 3,-1.4 3,-3 l 0,-65.5 c 0,-1.7 -1.4,-3 -3,-3 l -65.5,0 z"/><g id="g7"><path style="fill:#7a7a7a" id="path9" d="m -507.9,251.9 c -2.2,-1 -4.8,-1.2 -7.1,-0.3 -2.3,0.8 -4.2,2.5 -5.2,4.8 l -1.4,2.9 29.5,0 -15.8,-7.4 z"/><path style="fill:#7a7a7a" id="path11" d="m -449.6,285 c -0.8,-2.3 -2.5,-4.2 -4.8,-5.2 l -2.9,-1.4 0,29.6 7.4,-15.8 c 1.1,-2.3 1.2,-4.8 0.3,-7.2 z"/><path style="fill:#7a7a7a" id="path13" d="m -548.1,316.7 c -1,2.2 -1.2,4.8 -0.3,7.1 0.8,2.3 2.5,4.2 4.8,5.2 l 2.9,1.4 0,-29.5 -7.4,15.8 z"/><path style="fill:#7a7a7a" id="path15" d="m -483.3,350.1 c 1.2,0.6 2.6,0.9 3.9,0.9 1.1,0 2.1,-0.2 3.2,-0.6 2.3,-0.8 4.2,-2.5 5.2,-4.8 l 0,0 1.4,-2.9 -29.5,0 15.8,7.4 z"/></g><path style="fill:#fff" id="path17" d="m -531.8,265.1 c -1.7,0 -3,1.4 -3,3 l 0,65.5 c 0,1.7 1.4,3 3,3 l 65.5,0 c 1.7,0 3,-1.4 3,-3 l 0,-65.5 c 0,-1.7 -1.4,-3 -3,-3 l -65.5,0 z"/><path style="fill:#59b4d9" id="path19" d="m -484.6,294.7 0,0 -12.7,0 5.3,-17.7 c 0.1,-0.5 -0.1,-1 -0.5,-1.2 -0.1,-0.1 -0.3,-0.1 -0.4,-0.1 -0.3,0 -0.6,0.2 -0.8,0.4 l -20.5,29.9 c -0.2,0.3 -0.2,0.7 -0.1,1 0.2,0.3 0.5,0.5 0.9,0.5 l 12.3,0 -5.5,18 c -0.1,0.5 0.1,1 0.5,1.2 0.1,0.1 0.3,0.1 0.4,0.1 0.3,0 0.6,-0.2 0.8,-0.4 l 21.1,-30.2 c 0.1,-0.2 0.2,-0.4 0.2,-0.6 0,-0.5 -0.5,-0.9 -1,-0.9 z"/></svg>